<?xml version="1.0" encoding="utf-8"?>
<!-- Generator: Adobe Illustrator 16.0.0, SVG Export Plug-In . SVG Version: 6.00 Build 0)  -->
<!DOCTYPE svg PUBLIC "-//W3C//DTD SVG 1.1//EN" "http://www.w3.org/Graphics/SVG/1.1/DTD/svg11.dtd">
<svg version="1.1" id="Layer_1" xmlns="http://www.w3.org/2000/svg" xmlns:xlink="http://www.w3.org/1999/xlink" x="0px" y="0px"
	 width="120.25px" height="54px" viewBox="0 0 120.25 54" enable-background="new 0 0 120.25 54" xml:space="preserve">
<g>
	<path fill="#0071CE" d="M117.986,17.181c-0.013,1.005-0.89,1.656-1.735,1.9c-0.12,0.034-0.168-0.196-0.097-0.294
		c0.515-0.237,1.06-0.627,1.06-1.201c0-0.436-0.438-0.656-0.709-0.726c-0.187-0.052-0.35-0.186-0.365-0.448
		c-0.018-0.266,0.229-0.605,0.765-0.573C117.476,15.872,117.998,16.342,117.986,17.181"/>
	<path fill="#0071CE" d="M38.839,21.683c0,1.167,0.057,1.331,0.666,1.39l0.358,0.033c0.067,0.045,0.043,0.307-0.022,0.341
		c-0.635-0.023-1.352-0.034-1.796-0.034c-0.445,0-0.834,0.011-1.548,0.034c-0.066-0.034-0.087-0.285,0-0.341l0.4-0.033
		c0.622-0.054,0.691-0.223,0.691-1.39v-4.85c0-0.344,0-0.356-0.334-0.356h-0.486c-0.521,0-1.008,0.035-1.358,0.308
		c-0.199,0.155-0.357,0.393-0.454,0.609c-0.019,0.043-0.033,0.091-0.06,0.129c-0.017,0.028-0.041,0.047-0.093,0.041
		c-0.054-0.005-0.158-0.037-0.205-0.062c-0.041-0.023-0.052-0.054-0.026-0.129c0.13-0.408,0.309-1.163,0.379-1.555
		c0.014-0.064,0.027-0.105,0.073-0.116c0.043-0.01,0.213,0.004,0.218,0.023c0.078,0.288,0.327,0.347,0.885,0.347h4.657
		c0.47,0,0.68-0.091,0.855-0.341c0.017-0.024,0.054-0.036,0.102-0.03c0.037,0.005,0.175,0.022,0.178,0.07
		c0.001,0.021-0.011,0.041-0.015,0.064c-0.119,0.567-0.163,1.351-0.157,1.657c0.003,0.065-0.17,0.072-0.238,0.072
		c-0.076,0-0.103-0.013-0.112-0.05c-0.009-0.032-0.009-0.068-0.015-0.103c-0.036-0.255-0.11-0.489-0.308-0.661
		c-0.241-0.207-0.607-0.267-1.28-0.273h-0.633c-0.334,0-0.322,0.012-0.322,0.378V21.683z"/>
	<path fill="#0071CE" d="M117.197,29.751c-0.99,0-1.718-0.309-1.942-0.438c-0.144-0.263-0.306-1.157-0.316-1.666
		c-0.002-0.101,0.305-0.117,0.353-0.048c0.179,0.607,0.786,1.688,2.024,1.722c0.883,0.023,1.446-0.489,1.518-1.271
		c0.054-0.588-0.206-1.101-1.014-1.685c-0.435-0.312-0.622-0.443-1.211-0.849c-0.618-0.424-1.243-1.028-1.186-2.01
		c0.058-1.046,0.967-1.989,2.416-1.989c0.695,0,0.912,0.089,1.336,0.167c0.152,0.028,0.317,0.07,0.413,0.07
		c0.106,0.287,0.211,0.952,0.211,1.451c-0.047,0.07-0.299,0.107-0.357,0.034c-0.153-0.569-0.551-1.278-1.575-1.278
		c-0.906,0-1.375,0.621-1.388,1.209c-0.017,0.696,0.458,1.098,1.024,1.509c0.352,0.255,0.464,0.32,0.871,0.588
		c1.024,0.679,1.567,1.253,1.552,2.259C119.912,28.713,118.871,29.751,117.197,29.751"/>
	<path fill="#0071CE" d="M46.978,19.712c0-2.256-0.203-3.067-1.405-3.169l-0.508-0.041c-0.12-0.082-0.081-0.448,0.041-0.508
		c1.18,0.042,1.872,0.06,2.725,0.06c0.813,0,1.505-0.018,2.317-0.06c0.123,0.06,0.164,0.426,0.041,0.508l-0.304,0.041
		c-1.2,0.164-1.241,1.013-1.241,3.169v9.575c0,1.604-0.081,3.008-0.466,3.944c-0.672,1.628-2.117,2.927-4.006,2.927
		c-0.245,0-0.874-0.019-0.874-0.427c0-0.344,0.304-0.937,0.732-0.937c0.244,0,0.487,0.043,0.752,0.124
		c0.283,0.082,0.568,0.142,0.854,0.142c0.425,0,0.67-0.245,0.811-0.528c0.469-0.956,0.531-4.005,0.531-5.104V19.712z"/>
	<path fill="#0071CE" d="M58.323,29.802c3.924,0,7.055-2.99,7.055-7.096c0-3.577-2.36-6.973-7.055-6.973
		c-4.186,0-7.238,3.111-7.238,7.178C51.084,26.569,53.81,29.802,58.323,29.802 M58.586,29.172c-4.003,0-5.468-3.903-5.468-6.911
		c0-4.453,2.744-5.898,4.857-5.898c3.886,0,5.367,3.62,5.367,6.973C63.342,27.342,61.025,29.172,58.586,29.172"/>
	<path fill="#0071CE" d="M70.3,29.802c-1.707,0-2.786-0.53-3.171-0.751c-0.245-0.448-0.51-1.891-0.55-2.847
		c0.101-0.143,0.406-0.183,0.489-0.061c0.305,1.037,1.139,3.029,3.495,3.029c1.71,0,2.544-1.117,2.544-2.338
		c0-0.896-0.183-1.89-1.669-2.847l-1.929-1.259c-1.019-0.671-2.2-1.83-2.2-3.498c0-1.931,1.508-3.498,4.149-3.498
		c0.629,0,1.365,0.103,1.891,0.266c0.265,0.062,0.549,0.121,0.713,0.121c0.183,0.489,0.363,1.628,0.363,2.48
		c-0.08,0.122-0.404,0.183-0.507,0.064c-0.263-0.977-0.811-2.299-2.765-2.299c-1.991,0-2.418,1.322-2.418,2.256
		c0,1.179,0.975,2.012,1.728,2.503l1.624,1.015c1.281,0.792,2.544,1.972,2.544,3.903C74.631,28.276,72.943,29.802,70.3,29.802"/>
	<path fill="#0071CE" d="M29.683,29.802c-1.709,0-2.786-0.53-3.172-0.751c-0.244-0.448-0.509-1.891-0.549-2.847
		c0.102-0.143,0.405-0.183,0.488-0.061c0.305,1.037,1.138,3.029,3.497,3.029c1.708,0,2.542-1.117,2.542-2.338
		c0-0.896-0.184-1.89-1.668-2.847l-1.93-1.259c-1.019-0.671-2.197-1.83-2.197-3.498c0-1.931,1.504-3.498,4.147-3.498
		c0.632,0,1.363,0.103,1.892,0.266c0.264,0.062,0.547,0.121,0.71,0.121c0.183,0.489,0.365,1.628,0.365,2.48
		c-0.079,0.122-0.404,0.183-0.507,0.064c-0.264-0.977-0.812-2.299-2.765-2.299c-1.991,0-2.418,1.322-2.418,2.256
		c0,1.179,0.975,2.012,1.726,2.503l1.629,1.015c1.279,0.792,2.54,1.972,2.54,3.903C34.013,28.276,32.325,29.802,29.683,29.802"/>
	<path fill="#0071CE" d="M78.168,19.108c0-2.115-0.042-2.42-1.242-2.561l-0.324-0.043c-0.123-0.082-0.084-0.446,0.04-0.507
		c0.873,0.039,1.564,0.061,2.399,0.061h3.823c1.301,0,2.502,0,2.744-0.061c0.121,0.346,0.245,1.808,0.328,2.704
		c-0.083,0.123-0.409,0.162-0.513,0.04c-0.301-0.954-0.485-1.666-1.543-1.931c-0.428-0.101-1.076-0.122-1.972-0.122h-1.464
		c-0.609,0-0.609,0.04-0.609,0.813v4.068c0,0.568,0.061,0.568,0.67,0.568h1.181c0.852,0,1.482-0.041,1.728-0.122
		c0.244-0.082,0.384-0.203,0.487-0.712l0.162-0.834c0.102-0.122,0.447-0.122,0.529,0.021c0,0.487-0.082,1.28-0.082,2.053
		c0,0.731,0.082,1.506,0.082,1.951c-0.082,0.143-0.427,0.143-0.529,0.023l-0.183-0.794c-0.082-0.366-0.222-0.671-0.632-0.772
		c-0.281-0.082-0.773-0.101-1.562-0.101h-1.181c-0.609,0-0.67,0.019-0.67,0.546v2.868c0,1.08,0.061,1.77,0.387,2.116
		c0.242,0.242,0.669,0.468,2.46,0.468c1.564,0,2.155-0.082,2.599-0.307c0.369-0.201,0.917-0.915,1.445-1.973
		c0.144-0.101,0.429-0.038,0.509,0.143c-0.141,0.712-0.653,2.276-0.915,2.826c-1.83-0.039-3.638-0.06-5.447-0.06h-1.832
		c-0.873,0-1.565,0.021-2.765,0.06c-0.121-0.06-0.163-0.387-0.04-0.507l0.67-0.061c1.158-0.104,1.262-0.406,1.262-2.542V19.108z"/>
	<path fill="#0071CE" d="M103.077,22.911c-0.973,0-1.016,0.04-1.016,0.651v2.866c0,2.134,0.102,2.419,1.24,2.54l0.589,0.061
		c0.123,0.082,0.083,0.449-0.041,0.511c-1.095-0.041-1.788-0.062-2.581-0.062c-0.874,0-1.565,0.041-2.358,0.062
		c-0.124-0.062-0.164-0.386-0.04-0.511l0.346-0.061c1.137-0.201,1.178-0.406,1.178-2.54v-7.319c0-2.135-0.142-2.482-1.197-2.564
		l-0.533-0.039c-0.119-0.081-0.077-0.447,0.042-0.508c0.997,0.02,1.688,0.061,2.562,0.061c0.793,0,1.486-0.022,2.359-0.061
		c0.124,0.061,0.163,0.427,0.042,0.508l-0.388,0.039c-1.177,0.123-1.22,0.429-1.22,2.564v2.337c0,0.63,0.043,0.65,1.016,0.65h5.814
		c0.978,0,1.018-0.02,1.018-0.65v-2.337c0-2.135-0.04-2.441-1.242-2.564l-0.384-0.039c-0.124-0.081-0.083-0.447,0.039-0.508
		c0.936,0.039,1.628,0.061,2.464,0.061c0.79,0,1.481-0.022,2.394-0.061c0.124,0.061,0.164,0.427,0.044,0.508l-0.427,0.039
		c-1.181,0.123-1.221,0.429-1.221,2.564v7.319c0,2.134,0.04,2.399,1.221,2.54l0.487,0.061c0.121,0.082,0.082,0.449-0.039,0.511
		c-0.978-0.041-1.669-0.062-2.459-0.062c-0.836,0-1.568,0.021-2.464,0.062c-0.122-0.062-0.163-0.386-0.039-0.511l0.384-0.061
		c1.242-0.163,1.202-0.406,1.242-2.54v-2.866c0-0.611-0.04-0.651-1.018-0.651H103.077z"/>
	<path fill="#0071CE" d="M36.365,26.649c-0.115,0-0.185-0.065-0.185-0.183v-0.441c0-0.106,0.043-0.155,0.174-0.155h3.649
		c0.131,0,0.172,0.049,0.172,0.155v0.441c0,0.118-0.069,0.183-0.185,0.183H36.365z"/>
	<path fill="#0071CE" d="M94.697,22.593c-0.796,0.546-2.415,0.499-2.488,0.5c-0.071,0.001-0.25,0-0.34-0.008
		c-0.235-0.018-0.307-0.087-0.327-0.335l-0.005-5.428c0-0.653,0.023-0.735,1.103-0.735c2.122,0,3.287,1.285,3.287,3.264
		C95.928,21.026,95.583,21.984,94.697,22.593 M96.17,16.771c-0.96-0.592-2.226-0.817-3.917-0.817c-1.696,0-2.961,0.022-4.041,0.164
		c-0.164,0.082-0.183,0.388-0.04,0.51l0.732,0.082c0.919,0.081,0.961,0.448,0.961,2.183v7.528c0,2.143-0.042,2.386-1.223,2.55
		l-0.43,0.061c-0.122,0.123-0.081,0.451,0.042,0.512c0.898-0.041,1.631-0.061,2.488-0.061c0.818,0,1.491,0.02,2.653,0.061
		c0.122-0.061,0.162-0.408,0.04-0.512l-0.55-0.061c-1.307-0.144-1.348-0.407-1.348-2.55v-2.288c0.012-0.413,0.109-0.432,0.672-0.432
		h0.496V23.7c0.853-0.013,2.191-0.211,3.06-0.625c0.874-0.427,2.039-1.365,2.039-3.244C97.805,18.422,97.108,17.361,96.17,16.771"/>
	<g opacity="0.2">
		<g>
			<defs>
				<rect id="SVGID_1_" x="3.724" y="39.14" width="23.526" height="11.703"/>
			</defs>
			<clipPath id="SVGID_2_">
				<use xlink:href="#SVGID_1_"  overflow="visible"/>
			</clipPath>
			<path clip-path="url(#SVGID_2_)" fill="#0071CE" d="M19.572,50.431c3.119-0.708,9.704-3.891,7.069-7.462
				c-4.779-6.468-21.9-2.786-21.9-2.786s-1.103,0.103-1.012,0.564c0.055,0.279,1.142,0.143,1.142,0.143s14.159-1.355,16.963,2.413
				c2.805,3.77-4.183,6.549-4.183,6.549s-0.944,0.345-0.748,0.78C17.162,51.203,19.572,50.431,19.572,50.431"/>
		</g>
	</g>
	<path fill="#0071CE" d="M15.271,32.961c-1.607-1.803-3.642-3.466-4.756-5.562c-1.101-2.07-0.928-4.383-0.126-6.5
		c0.691-1.819,1.899-3.479,3.315-4.92c1.917-1.957,3.191-2.695,2.927-2.961c-0.323-0.324-2.056,1.061-2.246,1.203
		C9.177,18.114,3.9,24.347,7.401,30.615c2.131,3.812,8.308,7.21,8.551,10.814c0.087,1.316-0.693,2.738-2.174,3.731
		c-1.713,1.151-4.611,1.499-6.332,0.772c-1.419-0.599-1.199,0.173-0.13,0.715c2.276,1.164,5.592,1.341,8.393-0.174
		c2.153-1.164,3.742-3.233,3.974-5.419C20.04,37.664,17.028,34.935,15.271,32.961"/>
	<path fill="#0071CE" d="M4.977,16.699c0.519,1.278,0.986,2.239,1.121,2.907c0.225,1.119-0.049,1.549-0.061,1.719v0.007
		c0,0.05,0.032,0.109,0.077,0.132c0.086,0.05,0.21,0.065,0.458-0.139c0.688-0.57,1.808-1.713,0.177-4.315
		c-1.628-2.599-0.739-3.406-0.47-3.718c0.213-0.25-0.041-0.407-0.375-0.238C5.386,13.317,3.93,14.13,4.977,16.699"/>
	<path fill="#0071CE" d="M15.371,21.964c-1.346,0.312-2.313,0.365-3.025,0.759c-0.658,0.367-0.927,1.122-1.06,1.655
		c-0.087,0.35-0.14,0.471-0.304,0.471c-0.17,0-0.209-0.099-0.28-0.41c-0.23-1.02-0.521-3.697,3.379-3.773
		c3.064-0.06,3.22-1.331,3.323-1.731c0.08-0.317,0.356-0.201,0.41,0.169C17.897,19.68,18.071,21.339,15.371,21.964"/>
	<path fill="#ABC380" d="M24.261,1.934c-0.012-0.158-0.091-0.303-0.236-0.428c-0.335-0.287-0.57-0.192-0.961-0.029
		c-0.395,0.161-1.054,0.432-2.387,0.636l-1.483,0.174c-1.406,0.151-3.331,0.353-5.081,0.741C11.182,3.679,4.319,5.2,1.342,12.182
		c-1.957,4.588-1.044,10.227,2.323,14.362c0.6,0.735,1.062,0.808,1.296,0.625c0.1-0.077,0.167-0.207,0.167-0.393
		c0-0.251-0.124-0.603-0.457-1.056c-1.599-2.191-2.418-4.714-2.418-7.239c0-1.633,0.342-3.267,1.037-4.813
		C6.659,6.167,15.963,4.774,21.287,4.08c-1.743,2.225-2.86,4.368-2.86,7.137c0,1.083,0.169,2.262,0.536,3.578
		c0.422,1.508,0.7,2.894,0.7,4.196c0,1.574-0.405,3.023-1.45,4.416c-1.504,1.999-3.292,2.727-5.512,3.203
		c-0.518,0.112-0.764,0.418-0.764,0.695c0,0.026,0.003,0.056,0.007,0.081c0.053,0.292,0.401,0.561,1.215,0.435
		c5.63-0.857,8.835-3.555,9.528-8.017c0.037-0.241,0.055-0.494,0.055-0.752c0-1.126-0.322-2.375-0.61-3.499l-0.221-0.891
		c-0.369-1.577-0.714-3.238-0.714-4.96c0-0.519,0.031-1.045,0.103-1.576c0.194-1.418,0.676-2.755,1.358-3.764l0.112-0.163
		c0.274-0.405,0.533-0.787,0.785-1.083c0.001,0,0.076-0.084,0.076-0.084c0.365-0.421,0.631-0.73,0.631-1.055
		C24.262,1.963,24.262,1.949,24.261,1.934"/>
	<polygon fill="#0071CE" points="57.545,35.674 54.823,35.674 54.823,38.361 53.792,38.361 53.792,32.385 54.823,32.385 
		54.823,34.913 57.545,34.913 57.545,32.385 58.577,32.385 58.577,38.361 57.545,38.361 	"/>
	<polygon fill="#0071CE" points="64.966,38.362 61.354,38.362 61.354,32.383 64.859,32.383 64.859,33.147 62.385,33.147 
		62.385,34.903 64.194,34.903 64.194,35.665 62.385,35.665 62.385,37.601 64.966,37.601 	"/>
	<path fill="#0071CE" d="M69.365,34.034l-0.833,2.16h1.613L69.365,34.034z M67.68,38.362h-0.923l2.428-5.995h0.618l2.206,5.995
		h-1.066l-0.549-1.479h-2.132L67.68,38.362z"/>
	<polygon fill="#0071CE" points="75.271,37.6 77.492,37.6 77.492,38.361 74.241,38.361 74.241,32.385 75.271,32.385 	"/>
	<polygon fill="#0071CE" points="77.968,32.385 82.807,32.385 82.807,33.146 80.907,33.146 80.907,38.363 79.877,38.363 
		79.877,33.146 77.968,33.146 	"/>
	<polygon fill="#0071CE" points="88.883,35.674 86.158,35.674 86.158,38.361 85.128,38.361 85.128,32.385 86.158,32.385 
		86.158,34.913 88.883,34.913 88.883,32.385 89.913,32.385 89.913,38.361 88.883,38.361 	"/>
	<path fill="#0071CE" d="M100.128,37.985c-0.101,0.062-0.215,0.119-0.341,0.18c-0.125,0.06-0.272,0.111-0.443,0.155
		c-0.171,0.045-0.363,0.083-0.579,0.113c-0.215,0.031-0.462,0.045-0.743,0.045c-0.454,0-0.869-0.083-1.245-0.246
		c-0.376-0.165-0.699-0.388-0.967-0.673c-0.269-0.285-0.479-0.612-0.629-0.985c-0.148-0.372-0.224-0.772-0.224-1.194
		c0-0.418,0.076-0.818,0.224-1.199c0.15-0.378,0.36-0.709,0.629-0.99c0.268-0.279,0.591-0.504,0.967-0.671
		c0.376-0.168,0.791-0.251,1.245-0.251c0.299,0,0.561,0.017,0.785,0.049c0.224,0.033,0.416,0.072,0.578,0.117
		c0.161,0.044,0.293,0.092,0.398,0.147c0.104,0.056,0.191,0.1,0.256,0.135l-0.296,0.717c-0.048-0.024-0.117-0.056-0.207-0.094
		c-0.088-0.04-0.2-0.08-0.335-0.121c-0.134-0.042-0.293-0.077-0.475-0.108c-0.183-0.028-0.389-0.046-0.623-0.046
		c-0.269,0-0.526,0.059-0.77,0.172c-0.245,0.113-0.462,0.273-0.649,0.479c-0.189,0.208-0.341,0.451-0.454,0.733
		c-0.114,0.284-0.17,0.595-0.17,0.931c0,0.326,0.058,0.631,0.175,0.912c0.116,0.28,0.271,0.524,0.462,0.729
		c0.19,0.207,0.414,0.368,0.667,0.485c0.255,0.116,0.518,0.175,0.793,0.175c0.233,0,0.436-0.015,0.608-0.042
		c0.174-0.026,0.325-0.057,0.455-0.092c0.127-0.036,0.237-0.078,0.331-0.122c0.091-0.044,0.175-0.084,0.246-0.121L100.128,37.985z"
		/>
	<path fill="#0071CE" d="M104.492,34.034l-0.833,2.16h1.612L104.492,34.034z M102.808,38.362h-0.923l2.428-5.995h0.618l2.206,5.995
		h-1.067l-0.548-1.479h-2.133L102.808,38.362z"/>
	<g>
		<path fill="#0071CE" d="M110.941,34.968c0.208,0,0.386-0.029,0.538-0.087c0.151-0.058,0.277-0.133,0.376-0.224
			c0.097-0.093,0.17-0.196,0.217-0.31c0.048-0.113,0.072-0.227,0.072-0.34c0-0.12-0.022-0.236-0.067-0.351
			c-0.044-0.113-0.115-0.213-0.214-0.3c-0.097-0.087-0.224-0.156-0.374-0.207c-0.152-0.05-0.332-0.075-0.54-0.075h-0.553v1.893
			H110.941z M112.69,38.452l-1.675-2.779h-0.619v2.689h-1.031v-5.978h1.668c0.359,0,0.672,0.046,0.941,0.135
			c0.269,0.09,0.493,0.208,0.671,0.354c0.179,0.146,0.313,0.312,0.399,0.496c0.087,0.186,0.13,0.37,0.13,0.558
			c0,0.208-0.039,0.397-0.116,0.567c-0.079,0.17-0.173,0.321-0.286,0.454c-0.114,0.131-0.238,0.238-0.373,0.321
			c-0.135,0.085-0.259,0.143-0.371,0.179l1.826,2.913L112.69,38.452z"/>
	</g>
	<polygon fill="#0071CE" points="119.681,38.362 116.071,38.362 116.071,32.383 119.575,32.383 119.575,33.147 117.1,33.147 
		117.1,34.903 118.911,34.903 118.911,35.665 117.1,35.665 117.1,37.601 119.681,37.601 	"/>
	<polygon fill="#0071CE" points="79.185,46.612 81.407,46.612 81.407,47.373 78.155,47.373 78.155,41.397 79.185,41.397 	"/>
	<path fill="#0071CE" d="M85.87,42.043c-0.298,0-0.566,0.059-0.802,0.175c-0.236,0.114-0.438,0.276-0.605,0.484
		s-0.295,0.457-0.384,0.746c-0.091,0.288-0.135,0.604-0.135,0.941c0,0.334,0.044,0.643,0.135,0.929
		c0.089,0.286,0.217,0.533,0.384,0.74c0.167,0.21,0.369,0.373,0.605,0.492c0.236,0.119,0.504,0.179,0.802,0.179
		c0.293,0,0.559-0.06,0.798-0.179c0.238-0.119,0.442-0.282,0.61-0.492c0.166-0.207,0.294-0.454,0.384-0.74
		c0.09-0.286,0.135-0.595,0.135-0.929s-0.045-0.644-0.135-0.927c-0.09-0.285-0.218-0.535-0.384-0.747
		c-0.168-0.211-0.372-0.376-0.61-0.495C86.429,42.103,86.163,42.043,85.87,42.043 M85.87,41.281c0.467,0,0.887,0.075,1.263,0.229
		c0.377,0.15,0.695,0.364,0.954,0.641c0.261,0.275,0.462,0.604,0.601,0.985c0.14,0.381,0.211,0.799,0.211,1.254
		c0,0.473-0.079,0.898-0.237,1.282c-0.159,0.382-0.375,0.708-0.65,0.976c-0.274,0.271-0.596,0.477-0.964,0.623
		c-0.367,0.147-0.76,0.22-1.178,0.22c-0.435,0-0.839-0.071-1.21-0.216c-0.37-0.142-0.69-0.347-0.958-0.618
		c-0.269-0.268-0.48-0.594-0.633-0.975c-0.152-0.384-0.227-0.814-0.227-1.292c0-0.442,0.074-0.853,0.223-1.233
		c0.15-0.379,0.359-0.706,0.628-0.983c0.269-0.278,0.588-0.495,0.959-0.655C85.022,41.359,85.428,41.281,85.87,41.281"/>
	<polygon fill="#0071CE" points="96.382,41.397 96.382,47.373 95.477,47.373 92.106,43.063 92.106,47.373 91.202,47.373 
		91.202,41.397 92.072,41.397 95.477,45.771 95.477,41.397 	"/>
	<path fill="#0071CE" d="M100.798,46.612c0.257,0,0.513-0.054,0.767-0.162c0.254-0.106,0.482-0.259,0.681-0.456
		c0.2-0.197,0.363-0.433,0.484-0.708c0.122-0.274,0.184-0.58,0.184-0.914c0-0.383-0.061-0.714-0.18-0.995
		c-0.118-0.281-0.279-0.511-0.48-0.69c-0.199-0.18-0.427-0.311-0.684-0.397c-0.258-0.087-0.521-0.131-0.789-0.131h-0.834v4.454
		H100.798z M98.917,41.397h1.855c0.485,0,0.924,0.068,1.321,0.205c0.398,0.138,0.739,0.334,1.022,0.593
		c0.285,0.256,0.506,0.568,0.664,0.936c0.158,0.368,0.238,0.78,0.238,1.241c0,0.429-0.089,0.828-0.266,1.197
		c-0.175,0.365-0.413,0.684-0.711,0.948c-0.3,0.267-0.645,0.476-1.036,0.627c-0.391,0.153-0.801,0.229-1.232,0.229h-1.855V41.397z"
		/>
	<path fill="#0071CE" d="M109.159,42.043c-0.298,0-0.566,0.059-0.801,0.175c-0.237,0.114-0.438,0.276-0.605,0.484
		s-0.297,0.457-0.386,0.746c-0.089,0.288-0.134,0.604-0.134,0.941c0,0.334,0.045,0.643,0.134,0.929s0.219,0.533,0.386,0.74
		c0.167,0.21,0.368,0.373,0.605,0.492c0.235,0.119,0.503,0.179,0.801,0.179c0.293,0,0.56-0.06,0.797-0.179
		c0.239-0.119,0.442-0.282,0.61-0.492c0.167-0.207,0.296-0.454,0.386-0.74c0.089-0.286,0.135-0.595,0.135-0.929
		s-0.046-0.644-0.135-0.927c-0.09-0.285-0.219-0.535-0.386-0.747c-0.168-0.211-0.371-0.376-0.61-0.495
		C109.719,42.103,109.452,42.043,109.159,42.043 M109.159,41.281c0.467,0,0.887,0.075,1.264,0.229
		c0.376,0.15,0.695,0.364,0.955,0.641c0.259,0.275,0.459,0.604,0.599,0.985c0.141,0.381,0.211,0.799,0.211,1.254
		c0,0.473-0.08,0.898-0.237,1.282c-0.158,0.382-0.376,0.708-0.649,0.976c-0.276,0.271-0.597,0.477-0.965,0.623
		c-0.366,0.147-0.759,0.22-1.178,0.22c-0.437,0-0.839-0.071-1.21-0.216c-0.369-0.142-0.689-0.347-0.959-0.618
		c-0.268-0.268-0.479-0.594-0.631-0.975c-0.153-0.384-0.228-0.814-0.228-1.292c0-0.442,0.075-0.853,0.223-1.233
		c0.15-0.379,0.358-0.706,0.627-0.983c0.27-0.278,0.59-0.495,0.96-0.655C108.312,41.359,108.716,41.281,109.159,41.281"/>
	<polygon fill="#0071CE" points="119.669,41.397 119.669,47.373 118.765,47.373 115.396,43.063 115.396,47.373 114.491,47.373 
		114.491,41.397 115.36,41.397 118.765,45.771 118.765,41.397 	"/>
</g>
</svg>
